<?xml version="1.0" encoding="utf-8"?>
<!-- Generator: Adobe Illustrator 18.1.1, SVG Export Plug-In . SVG Version: 6.00 Build 0)  -->
<svg version="1.1" id="XMLID_1_" xmlns="http://www.w3.org/2000/svg" xmlns:xlink="http://www.w3.org/1999/xlink" x="0px" y="0px"
	 viewBox="0 0 80.8344 60" enable-background="new 0 0 80.8344 60" xml:space="preserve">
<g id="site-nav">
	<line id="Do_not_delete_1_" fill="none" x1="0" y1="0.0001" x2="0" y2="60.0001"/>
	<g id="Guides_1_">
	</g>
	<g id="logo_2_">
		<g>
			<path d="M11.2514,12.0454v14.2432c0,0,0.0907,0,0.0907,0.0907l0.2722-0.3629c0.9072-0.9072,1.9051-1.8144,3.1752-2.4041
				c1.4062-0.6804,2.9031-0.7711,4.4453-0.6804c1.2701,0.0907,2.4041,0.3629,3.5835,0.9072
				c2.1773,0.9979,3.5835,2.6763,4.4453,4.9897c0.6804,1.4062,0.8619,2.8124,0.9979,4.2185
				c0.0907,1.4062,0.0907,2.9031,0.0907,4.2185c-0.2722,2.5402-0.8619,4.9897-2.5402,7.0309
				c-1.5423,1.9051-3.5835,3.0845-5.9876,3.5835c-0.3629,0.0907-0.6804,0.0907-0.9979,0.0907h-2.0412
				c-0.3629-0.0907-0.6804-0.0907-0.9979-0.0907c-2.4041-0.4082-4.3546-1.633-5.4886-3.8556l-0.0907-0.2722
				c-0.1361,0.0907-0.1361,0.2722-0.1361,0.2722c-0.3629,0.8619-0.7711,1.9051-1.134,2.9031
				c-0.1361,0.0907-0.1361,0.2722-0.3629,0.2722H3.9483V18.5773c0-0.2722,0-0.6804-0.1361-0.9072
				C3.6762,16.899,3.1772,16.4,2.4061,16.4H0.002V12C0.002,12,11.2514,12.0454,11.2514,12.0454z M11.1153,36.0865
				c0.1361,0.499,0.1361,1.5423,0.2722,2.4041c0.0907,0.9979,0.499,2.0412,0.9979,3.0845c1.5423,2.5402,5.2165,2.5402,6.7587,0.2722
				c0.7711-0.9979,1.134-2.4041,1.4062-3.6742c0.2722-1.633,0.2722-3.3113,0.0907-4.9897
				c-0.0907-1.2701-0.3629-2.4041-0.9979-3.4474c-1.4062-2.5402-3.9464-2.5402-5.4886-1.5423
				c-0.9979,0.6804-1.5423,1.5423-2.0412,2.5402C11.2514,32.2762,11.1153,33.9545,11.1153,36.0865z M56.9748,47.8802l-1.633-0.2722
				c-2.6763-0.4082-5.1257-1.5423-7.0309-3.5835c-1.4062-1.5423-2.4041-3.3113-2.8124-5.3525
				c-0.635-2.8123-0.499-5.6247,0.499-8.301c1.4062-3.6742,4.0824-5.9876,7.802-7.0309c1.9051-0.499,3.8556-0.6804,5.7608-0.499
				c2.0412,0.0907,3.9464,0.6804,5.7608,1.633c2.9031,1.633,4.7175,4.0824,5.4886,7.2577c0.2722,0.9979,0.4082,2.0412,0.4082,3.0845
				c0.1361,2.0412-0.2722,4.0824-0.9979,5.8969c-1.4062,3.1752-3.8556,5.3525-7.0309,6.3958
				c-1.134,0.4082-2.3134,0.635-3.4474,0.635c-0.1361,0-0.1361,0-0.2722,0.0907C58.6077,47.8802,57.882,47.8802,56.9748,47.8802z
				 M63.5067,35.3153l-0.1361-2.3134c-0.1361-1.4062-0.4082-2.6763-0.9979-3.8556c-1.2701-2.3134-3.4474-2.9031-5.4886-2.1773
				c-1.4062,0.3629-2.1773,1.4062-2.8123,2.6763c-0.635,1.2701-0.8619,2.6763-0.9979,4.0824
				c-0.1361,1.5423-0.1361,3.1752,0.2722,4.8536c0.2722,1.2701,0.635,2.4041,1.4062,3.5835
				c1.5423,2.1773,4.6268,2.5402,6.4866,0.7711c0.7711-0.635,1.2701-1.5423,1.5423-2.4041
				C63.2345,38.7627,63.5067,37.1297,63.5067,35.3153z M40.7357,12.499v7.2577H33.478V12.499H40.7357z M40.7357,23.4762v17.5092
				c0,0.2722,0,0.499,0.0907,0.7711c0.0907,0.8619,0.635,1.2701,1.5423,1.2701h2.1773v3.9464H29.4863v-3.9464h2.3134
				c0.9979,0,1.5423-0.499,1.5423-1.4062l0.0907-0.9979V29.5999c0-0.2722,0-0.6804-0.0907-0.7711
				c-0.0907-0.9072-0.635-1.2701-1.5423-1.2701h-2.1773v-4.0824C29.6224,23.4762,40.7357,23.4762,40.7357,23.4762z"/>
			<path fill="#D32328" d="M72.3973,43.1173c0-2.4041,1.9051-4.2185,4.2185-4.2185c2.1773,0,4.2185,1.7691,4.2185,4.2185
				c0,2.4041-2.0412,4.2185-4.3546,4.2185C74.3478,47.472,72.3973,45.5668,72.3973,43.1173z"/>
		</g>
	</g>
</g>
<g>
</g>
</svg>
